<svg xmlns="http://www.w3.org/2000/svg"
    width="24" height="24"
    viewBox="0 0 24 24">
    <path fill="none"
        stroke="#757575"
        stroke-width="0.6"
        stroke-miterlimit="10"
        d="M6.1,14.5l-3.2,6.1l2.9-0.1l1.6,2.5l3.2-6.1
           			C8.8,16.6,7.3,15.7,6.1,14.5z M9.7,12.5l0.4-2.5L8.3,8.2l2.5-0.4l1.1-2.3L13,7.8l2.5,0.4L13.7,10l0.4,2.5l-2.2-1.2L9.7,12.5z
           			 M18.9,9c0-3.9-3.1-7-7-7c-3.9,0-7,3.1-7,7c0,3.6,2.7,6.5,6.1,6.9h0c0.3,0,0.6,0.1,0.9,0.1s0.6,0,0.9-0.1h0
           			C16.2,15.5,18.9,12.6,18.9,9L18.9,9z M17.7,14.5c-1.2,1.2-2.7,2.1-4.5,2.4l3.2,6.1l1.6-2.5l2.9,0.1L17.7,14.5z"/>
</svg>