<svg xmlns="http://www.w3.org/2000/svg"
    width="154" height="24"
    viewBox="0 0 154 24">
    <path
        fill="#FFFFFF"
        d="M3.2,18.1c-3.3-2.2-3.8-7.6-1.9-10.8c1.9-3.3,6.6-4.2,9.3-1.4L9.9,6.7C8.4,5.1,6,4.8,4.2,5.8
	c-2,1.1-2.7,3.4-2.7,5.6c0,2,0.4,4.2,2,5.6c1.6,1.3,4.6,1.5,6.1,0v-4.3H6.3v-1h4.4v5.7C8.9,19.3,5.4,19.5,3.2,18.1
	C2.3,17.5,4.1,18.7,3.2,18.1z M15.7,18.3c-2.4-1.5-2.9-5-1.8-7.5C15,8.3,18,7.2,20.4,8.7c2.3,1.4,2.9,4.8,2,7.2
	C21.4,18.5,18.2,19.9,15.7,18.3C15,17.9,16.4,18.8,15.7,18.3z M19.9,17.5c1.7-1.2,2.1-3.9,1.5-5.8c-0.7-2.2-3.1-3.6-5.1-2.1
	c-1.7,1.2-2.1,3.8-1.5,5.6C15.4,17.4,17.8,18.9,19.9,17.5z M27.4,18.3c-2.4-1.5-2.9-5-1.8-7.5c1.1-2.5,4.2-3.6,6.6-2.2
	c2.3,1.4,2.9,4.8,2,7.2C33.1,18.5,29.9,19.9,27.4,18.3C26.6,17.9,28.1,18.8,27.4,18.3z M31.5,17.5c1.7-1.2,2.1-3.9,1.5-5.8
	c-0.7-2.2-3.1-3.6-5.1-2.1c-1.7,1.2-2.1,3.8-1.5,5.6C27,17.4,29.4,18.9,31.5,17.5z M37.8,22.9c-1.8-1.2-1.2-3.5,0.4-4.6v-0.1
	c-1.5-0.9-1-2.8,0.2-3.6v-0.1c-3.1-2.6,0-8,3.8-6.3h3.6v0.9h-2.4c3.1,2.7-0.8,7.9-4.3,5.8c-1.5,1.3-0.7,2.8,1.2,2.8h2.2
	c1,0,2.4,0.1,3.1,1c0.8,1,0.4,2.5-0.4,3.3C43.4,24,39.8,24.3,37.8,22.9z M43,22.5c1-0.4,2-1.4,1.8-2.6c-0.2-1-1.4-1.2-2.3-1.2h-2.2
	c-0.4,0-0.8-0.1-1.3-0.2c-1.2,0.8-1.9,2.5-0.5,3.6C39.6,23.1,41.7,23.1,43,22.5C43.6,22.2,42.4,22.7,43,22.5z M42.6,13.8
	c2.3-2.4-1-6.6-3.6-4.2C36.5,11.9,40,16.5,42.6,13.8C43.2,13.2,42.1,14.3,42.6,13.8z M48.1,17.2v-14h1.1v14.2c0,0.6,0.3,0.8,0.8,0.7
	l0.2,0.9C48.9,19.3,48.1,18.5,48.1,17.2z M61,13.7h-7.5c0.1,3.6,3.6,5.6,6.6,3.5l0.5,0.8c-2,1.3-4.8,1.5-6.6-0.2
	c-1.8-1.7-2-4.7-1.1-6.8c0.9-2.1,3.2-3.4,5.5-2.7C60.7,9,61.4,11.6,61,13.7z M60.1,12.8c0-1.8-0.7-3.7-2.7-3.8
	c-2.2-0.2-3.6,1.8-3.8,3.8H60.1z M68.3,4.4H72c2.7,0,5.2,1,5.2,4c0,3-2.4,4.2-5.1,4.2h-2.6v6.1h-1.2V4.4z M71.9,11.7
	c2.1,0,4.1-0.7,4.2-3.1C76.1,6,74,5.4,71.8,5.4h-2.3v6.3H71.9z M80.2,17.2v-14h1.1v14.2c0,0.6,0.3,0.8,0.8,0.7l0.2,0.9
	C81,19.3,80.2,18.5,80.2,17.2z M85.5,18.3c-1.4-1.2-1-3.6,0.5-4.6c1.5-1,3.6-1.3,5.3-1.5c0-1.2-0.3-2.7-1.6-3.1
	c-1.4-0.4-3,0.3-4.1,1.1l-0.5-0.8c1.5-1,3.6-1.8,5.3-1.1c1.5,0.6,2,2.4,2,3.9v6.6h-0.9l-0.1-1.3h0C89.8,18.7,87.3,19.8,85.5,18.3
	C85,17.8,86.1,18.7,85.5,18.3z M89.6,17.6c0.5-0.3,1.1-0.7,1.8-1.2V13c-1.6,0.2-4.4,0.4-5.3,2.1c-0.4,0.8-0.3,1.9,0.3,2.5
	C87.3,18.3,88.7,18.1,89.6,17.6C90.1,17.4,89.1,17.9,89.6,17.6z M94.7,23.2l0.3-0.9c1.9,0.6,2.9-0.9,3.5-2.5l0.3-0.9L94.4,8.3h1.2
	l2.4,6.4l1.1,3h0.1c0.2-0.6,0.4-1.1,0.6-1.7l0.4-1.2l2.1-6.4h1.1L99.4,20C98.8,21.9,97.1,24.2,94.7,23.2z M111.3,18.4
	c-0.8-0.4-1.5-0.9-2.1-1.6l0.7-0.8c1.5,1.7,4.6,2.7,6.6,1.2c0.9-0.7,1.2-1.8,1-2.8c-0.3-1.2-1.4-1.7-2.5-2.2l-2.1-1
	c-1.1-0.5-2.3-1.2-2.7-2.4c-0.4-1.2-0.1-2.6,0.8-3.5c2-2,5.5-1.3,7.3,0.5l-0.7,0.8c-1.4-1.4-4.1-2.1-5.7-0.7
	c-0.7,0.6-0.9,1.6-0.6,2.5c0.4,1,1.4,1.5,2.3,1.9l2.1,0.9c2.2,1,3.9,3.2,2.5,5.6C116.8,19.2,113.4,19.4,111.3,18.4z M121.8,18.2
	c-0.4-0.6-0.6-1.3-0.6-2.4V9.2h-1.6V8.4l1.7-0.1l0.1-3h0.9v3h3v1h-3v6.6c0,1.9,1.3,2.7,3,1.9l0.3,0.9
	C124.5,19,122.7,19.4,121.8,18.2C121.4,17.6,122.2,18.7,121.8,18.2z M129.1,18.3c-2.4-1.5-2.9-5-1.8-7.5c1.1-2.5,4.2-3.6,6.6-2.2
	c2.3,1.4,2.9,4.8,2,7.2C134.8,18.5,131.6,19.9,129.1,18.3C128.4,17.9,129.8,18.8,129.1,18.3z M133.3,17.5c1.7-1.2,2.1-3.9,1.5-5.8
	c-0.7-2.2-3.1-3.6-5.1-2.1c-1.7,1.2-2.1,3.8-1.5,5.6C128.7,17.4,131.2,18.9,133.3,17.5z M139.2,8.3h0.9l0.1,1.9h0
	c0.7-1.3,2.4-2.8,4-2l-0.2,1c-1.8-0.8-3.2,1-3.8,2.5v7h-1.1V8.3z M153.7,13.7h-7.5c0.1,3.6,3.6,5.6,6.6,3.5l0.5,0.8
	c-2,1.3-4.8,1.5-6.6-0.2c-1.8-1.7-2-4.7-1.1-6.8c0.9-2.1,3.2-3.4,5.5-2.7C153.3,9,154,11.6,153.7,13.7z M152.7,12.8
	c0-1.8-0.7-3.7-2.7-3.8c-2.2-0.2-3.6,1.8-3.8,3.8H152.7z"/>
</svg>