<svg xmlns="http://www.w3.org/2000/svg"
    width="24" height="24"
    viewBox="0 0 24 24">
    <path fill="none"
        stroke="#FFFFFF"
        stroke-width="1.5"
        stroke-linecap="round"
        stroke-linejoin="round"
        d="M21 5c0-.53-.211-1.039-.586-1.414S19.53 3 19 3H5c-.53 0-1.039.211-1.414.586S3
  4.47 3 5v14c0 .53.211 1.039.586 1.414S4.47 21 5 21h14c.53 0 1.039-.211 1.414-.586S21
  19.53 21 19V5z M16.5 15.4c0-1.6-2.9-2.1-4.5-2.1s-4.5.8-4.5 2.1 M12.005 7.6c.828-.014
  1.512.646 1.526 1.474.015.828-.646 1.511-1.474 1.526-.827.014-1.511-.646-1.525-1.474-.015-.827.645-1.511
  1.473-1.526z"/>
</svg>