<svg xmlns="http://www.w3.org/2000/svg"
    width="24" height="24"
    viewBox="0 0 24 24">
    <path fill="none"
        stroke="#FFFFFF"
        stroke-width="0.8"
        stroke-miterlimit="10"
        d="M12 2.4c-5.3 0-9.6 4.3-9.6 9.6s4.3 9.6 9.6 9.6 9.6-4.3 9.6-9.6-4.3-9.6-9.6-9.6z
  M2.645 9.836L8 14.1c.3.2.4.6.4 1l-.2 1.2c0 .9.6 1.5 1.3 1.8.4.1.6.5.6 1v2.312
  M20.5 16.2c-.3-.8-1-1.3-1.8-1.3-.6 0-1-.4-1-1v-1c0-.6-.5-1-1-1H12c-.6 0-1-.4-1-1v-1c0-.5.4-1
  1-1h1c.6 0 1-.4 1-1v-1c0-.5.4-1 1-1h1c1 0 1.664-.7 1.864-1.5"/>
</svg>