<svg xmlns="http://www.w3.org/2000/svg"
    width="24" height="24"
    viewBox="0 0 24 24">
    <path
        fill="none"
        stroke="#FFFFFF"
        stroke-width="0.8"
        stroke-miterlimit="10"
        d="M8.6,10.7L11.4,7 M21.4,16H2.5 M12.5,7l2.8,3.8 M11.4,4.8c0,1.1-0.9,2-2,2s-2-0.9-2-2s0.9-2,2-2
	S11.4,3.7,11.4,4.8z M16.6,4.8c0,1.1-0.9,2-2,2s-2-0.9-2-2s0.9-2,2-2S16.6,3.7,16.6,4.8z M21.5,19.2V8.9c0-1.1-0.9-2-2-2h-15
	c-1.1,0-2,0.9-2,2v10.3c0,1.1,0.9,2,2,2h15C20.6,21.2,21.5,20.3,21.5,19.2z"/>
</svg>