<svg xmlns="http://www.w3.org/2000/svg"
    width="24" height="24"
    viewBox="0 0 24 24">
    <path fill="none"
        stroke="#FFFFFF"
        stroke-width="1.5"
        stroke-linecap="round"
        stroke-linejoin="round"
        d="M17.9 3.2v4.798 M4.524 11.786s-.008 6.648-.01
  8.651c-.001.149.059.292.164.398.106.105.249.165.398.165h13.81c.159
  0 .311-.064.424-.176.112-.112.174-.265.174-.423v-8.615l2.538.001s-6.837-6.285-9.217-8.473c-.456-.419-1.156-.419-1.611
  0-2.378 2.189-9.199 8.472-9.199 8.472h2.529z M12.405
  16.491c-.228.207-.579.207-.807-.003l-.033-.03c-1.574-1.424-2.603-2.357-2.564-3.521.018-.509.279-.998.702-1.286.792-.54
  1.769-.288 2.297.33.528-.618 1.506-.873 2.297-.33.423.288.684.777.702
  1.286.042 1.164-.989 2.097-2.564 3.527l-.03.027z M4.524 11.786s-.008 6.648-.01
  8.651c-.001.149.059.292.164.398.106.105.249.165.398.165h13.81c.159 0
  .311-.064.424-.176.112-.112.174-.265.174-.423v-8.615l2.538.001s-6.837-6.285-9.217-8.473c-.456-.419-1.156-.419-1.611
  0-2.378 2.189-9.199 8.472-9.199 8.472h2.529z"/>
</svg>