<svg xmlns="http://www.w3.org/2000/svg"
    width="24" height="24"
    viewBox="0 0 24 24">
    <path fill="none"
		stroke="#FFFFFF"
		stroke-width="1.5"
		stroke-linecap="round"
        stroke-linejoin="round"
        d="M9.423 8.858v6.284c0 .479.528.771.934.51l4.938-3.142c.376-.237.376-.783 
  0-1.026l-4.938-3.136c-.406-.261-.934.031-.934.51z
  M21 5c0-.53-.211-1.039-.586-1.414S19.53 3 19 3H5c-.53 0-1.039.211-1.414.586S3 
  4.47 3 5v14c0 .53.211 1.039.586 1.414S4.47 21 5 21h14c.53 0 1.039-.211
  1.414-.586S21 19.53 21 19V5z"/>
</svg>