<svg xmlns="http://www.w3.org/2000/svg"
    width="24" height="24"
    viewBox="0 0 24 24">
    <path fill="none"
        stroke="#FFFFFF"
        stroke-width="0.8"
        stroke-miterlimit="10"
        d="M21,18.8V5.3C21,4,20,3,18.8,3H5.3C4,3,3,4,3,5.3v13.5C3,20,4,21,5.3,21h13.5C20,21,21,20,21,18.8z M5.4,7.6
	l2.1,3.6 M18.6,7.6l-2.1,3.6 M9.3,14.9c0,0.7-0.6,1.2-1.2,1.2s-1.2-0.6-1.2-1.2s0.5-1.3,1.1-1.3C8.7,13.6,9.3,14.2,9.3,14.9z
	 M16,13.6c-0.7,0-1.2,0.6-1.2,1.2s0.6,1.2,1.2,1.2s1.2-0.6,1.2-1.2S16.7,13.6,16,13.6z M21,18.9c0-5-4-9-9-9s-9,4-9,9"/>
</svg>