<svg xmlns="http://www.w3.org/2000/svg"
    width="24" height="24"
    viewBox="0 0 24 24">
    <path fill="none"
        stroke="#FFFFFF"
        stroke-width="1.5"
        stroke-linecap="round"
        stroke-linejoin="round"
        d="M20 20H4c-1.1 0-2-.9-2-2V6c0-1.1.9-2 2-2h16c1.1 0 2 .9 2 2v12c0
  1.1-.9 2-2 2z M5.298 15.5c0-.69.56-1.25 1.25-1.25s1.25.56 1.25 1.25-.56
  1.25-1.25 1.25-1.25-.56-1.25-1.25zM10.75 15.5c0-.69.56-1.25 1.25-1.25s1.25.56
  1.25 1.25-.56 1.25-1.25 1.25-1.25-.56-1.25-1.25zM16.25 15.5c0-.69.56-1.25
  1.25-1.25s1.25.56 1.25 1.25-.56 1.25-1.25
  1.25-1.25-.56-1.25-1.25z"/>
</svg>