<svg xmlns="http://www.w3.org/2000/svg"
    width="24" height="24"
    viewBox="0 0 24 24">
    <path fill="none"
        stroke="#757575"
        stroke-width="1.5"
		stroke-linecap="round"
        stroke-linejoin="round"
        d="M20.25 5.05c0-.718-.582-1.3-1.3-1.3H5.05c-.718 0-1.3.582-1.3
1.3v13.9c0 .718.582 1.3 1.3 1.3h13.9c.718 0 1.3-.582 1.3-1.3V5.05z
M7.75 7.75h.5v.5h-.5zM7.75 11.75h.5v.5h-.5zM7.75 15.75h.5v.5h-.5z
M11.75 15.75h.5v.5h-.5zM15.75 15.75h.5v.5h-.5zM15.75 11.75h.5v.5h-.5zM11.75
11.75h.5v.5h-.5zM11.75 7.75h.5v.5h-.5zM15.75 7.75h.5v.5h-.5z"/>
</svg>