<svg xmlns="http://www.w3.org/2000/svg"
    width="24" height="24"
    viewBox="0 0 24 24">
    <path fill="none"
        stroke="#757575"
        stroke-width="2"
        stroke-linecap="round"
        stroke-linejoin="round"
        d="M20.25 5.05c0-.718-.582-1.3-1.3-1.3H5.05c-.718 0-1.3.582-1.3
 1.3v4.9c0 .718.582 1.3 1.3 1.3h13.9c.718 0 1.3-.582
1.3-1.3v-4.9zM20.25 15.05c0-.718-.582-1.3-1.3-1.3H5.05c-.718
 0-1.3.582-1.3 1.3v4.9c0 .718.582 1.3 1.3 1.3h13.9c.718 0
 1.3-.582 1.3-1.3v-4.9z M6.97 6.97c.308-.308.795-.321
 1.088-.028.293.293.28.78-.028 1.088-.308.308-.795.321-1.088.028-.293-.293-.28-.78.028-1.088zM6.97
16.97c.308-.308.795-.321 1.088-.028.293.293.28.78-.028
1.088-.308.308-.795.321-1.088.028-.293-.293-.28-.78.028-1.088z"/>
</svg>