<svg xmlns="http://www.w3.org/2000/svg"
    width="24" height="24"
    viewBox="0 0 24 24">
    <path fill="none"
        stroke="#757575"
        stroke-width="0.6"
        stroke-miterlimit="10"
        d="M17.5,21.5H4.2c-0.5,0-0.9-0.2-1.2-0.5l0,0c-0.3-0.3-0.5-0.8-0.5-1.2V6.5 M19.5,2.5h-12c-1.1,0-2,0.7-2,1.6
           	v12.8c0,0.9,0.9,1.6,2,1.6h12c1.1,0,2-0.7,2-1.6V4.1C21.5,3.2,20.6,2.5,19.5,2.5z M18.5,8.4C18.3,7,17.1,6,15.7,6h-0.9h-2.6h-1
           	C9.8,6,8.6,7,8.4,8.4c0,0-0.9,5.3-0.9,5.3C7.5,14.4,8,15,8.8,15c0.4,0,0.7-0.1,0.9-0.4l2-2h3.6l2.1,2c0.2,0.2,0.5,0.4,0.9,0.4
           	c0.7,0,1.3-0.5,1.3-1.3C19.4,13.7,18.5,8.4,18.5,8.4L18.5,8.4z"/>
</svg>