<svg xmlns="http://www.w3.org/2000/svg"
    width="24" height="24"
    viewBox="0 0 24 24">
    <path fill="none"
        stroke="#FFFFFF"
        stroke-opacity="0.7"
        stroke-width="2"
        stroke-linecap="round"
        stroke-linejoin="round"
        d="M20.693 7.218V4.779c0-.398-.158-.78-.439-1.061-.282-.281-.663-.439-1.061-.439H4.75c-.398
 0-.779.158-1.061.439-.281.281-.439.663-.439 1.061v14.442c0 .398.158.78.439 1.061.282.281.663.439
 1.061.439h14.443c.398 0 .779-.158 1.061-.439.281-.281.439-.663.439-1.061v-2.336
M21.75 9.007c0-.828-.672-1.5-1.5-1.5h-7.043c-.828 0-1.5.672-1.5 1.5v5.986c0
 .828.672 1.5 1.5 1.5h7.043c.828 0 1.5-.672 1.5-1.5V9.007z
M15.327 11.116c.488-.488 1.28-.488 1.768 0 .487.488.487
 1.28 0 1.768-.488.488-1.28.488-1.768 0s-.488-1.28 0-1.768z"/>
</svg>