<svg xmlns="http://www.w3.org/2000/svg"
    width="24" height="24"
    viewBox="0 0 24 24">
    <path fill="none"
        stroke="#FFFFFF"
        stroke-width="2"
        stroke-linecap="round"
        stroke-linejoin="round"
        d="M21.25 8.752c0-1.105-.896-2-2-2H4.771c-1.105 0-2 .895-2
2v9.478c0 1.104.895 2 2 2H19.25c1.104 0 2-.896 2-2V8.752z
 M16.134 10.402l-3.343-3.654C12.307 6.335 12 5.721 12
 5.036c0-1.242 1.008-2.25 2.25-2.25s2.25 1.008 2.25 2.25c0
.688-.31 1.305-.798 1.718M7.816 10.402l3.343-3.654c.484-.413.791-1.027.791-1.712
0-1.242-1.008-2.25-2.25-2.25s-2.25 1.008-2.25 2.25c0
.688.31 1.305.798 1.718M2.771 15.5H21.25"/>
</svg>