<svg xmlns="http://www.w3.org/2000/svg"
    width="24" height="24"
    viewBox="0 0 24 24">
    <path fill="none"
        stroke="#FFFFFF"
        stroke-opacity="0.7"
        stroke-width="1.5"
        stroke-linecap="round"
        stroke-linejoin="round"
        d="M13.089 3.91c-.244-.243-.574-.38-.919-.38-.345 0-.675.137-.919.38L3.91
 11.251c-.243.244-.38.574-.38.919 0 .345.137.675.38.919l7.001 7.001c.244.243.574.38.919.38.345
 0 .675-.137.919-.38l7.341-7.341c.243-.244.38-.574.38-.919 0-.345-.137-.675-.38-.919L13.089 3.91z
M12.994 8.955c-.244-.243-.574-.38-.919-.38-.345 0-.676.137-.919.38l-2.201 2.201c-.243.243-.38.574-.38.919
0 .345.137.675.38.919l2.051 2.051c.244.243.574.38.919.38.345 0
 .676-.137.919-.38l2.201-2.201c.243-.243.38-.574.38-.919 0-.345-.137-.675-.38-.919l-2.051-2.051z"/>
</svg>