<svg xmlns="http://www.w3.org/2000/svg"
    width="24" height="24"
    viewBox="0 0 24 24">
    <path fill="none"
        stroke="#FFFFFF"
		stroke-width="2"
		stroke-linecap="round"
        stroke-linejoin="round"
        d="M11.235 1.956L4.624 4.894c-.68.302-1.124.982-1.124 1.728v4.439c0
 5.241 3.627 10.143 8.5 11.333 4.873-1.19 8.5-6.092
 8.5-11.333V6.622c0-.746-.444-1.426-1.124-1.728l-6.611-2.938c-.482-.217-1.048-.217-1.53
 0zM10 8.937v6.126c0 .467.515.75.91.497l4.815-3.063c.367-.231.367-.763
  0-.999L10.91 8.44c-.395-.253-.91.03-.91.497z"/>
</svg>