

<svg xmlns="http://www.w3.org/2000/svg"
    width="24" height="24"
    viewBox="0 0 24 24">
    <path fill="none"
        stroke="#757575"
        stroke-width="0.6"
        stroke-miterlimit="10"
        d="M22,12l-2.2-2.5l0.3-3.3l-3.3-0.7l-1.7-2.9L12,3.8L8.9,2.5L7.2,5.4L3.9,6.1l0.3,3.3L2,12
           					l2.2,2.5l-0.3,3.3l3.3,0.7l1.7,2.9l3.1-1.3l3.1,1.3l1.7-2.9l3.3-0.7l-0.3-3.3L22,12L22,12z M12.9,16.5h-1.8v-1.8h1.8V16.5
           					L12.9,16.5z M12.9,12.9h-1.8V7.5h1.8V12.9L12.9,12.9z"/>
</svg>

