<svg xmlns="http://www.w3.org/2000/svg"
    width="24" height="24"
    viewBox="0 0 24 24">
    <path fill="none"
        stroke="#757575"
        stroke-width="0.6"
        stroke-miterlimit="10"
        d="M12,12.9c-2.5,0-4.5-2-4.5-4.5h1.8c0,1.5,1.2,2.7,2.7,2.7s2.7-1.2,2.7-2.7h1.8C16.5,10.8,14.5,12.9,12,12.9
           	 M12,3.8c1.5,0,2.7,1.2,2.7,2.7H9.3C9.3,5,10.5,3.8,12,3.8 M18.3,6.5h-1.8C16.5,4,14.5,2,12,2S7.5,4,7.5,6.5H5.7
           	c-1,0-1.8,0.8-1.8,1.8v10.9c0,1,0.8,1.8,1.8,1.8h12.7c1,0,1.8-0.8,1.8-1.8V8.3C20.1,7.3,19.3,6.5,18.3,6.5z"/>
</svg>


