<svg xmlns="http://www.w3.org/2000/svg"
    width="24" height="24"
    viewBox="0 0 24 24">
    <path
        fill="none"
        stroke="#757575"
        stroke-width="0.6"
        stroke-miterlimit="10"
        d="M7.5,7.1h-3c-1,0-1.8,0.8-1.8,1.9l0,10.2c0,1,0.8,1.9,1.9,1.9h14.9c1,0,1.9-0.8,1.9-1.9V8.9
	c0-1-0.8-1.9-1.9-1.9h-3H7.5z M2.7,18.7h18.6 M8.7,10.8l2.8-3.7 M21.3,14.5H2.7 M12.5,7.1l2.8,3.7 M11.5,5c0,1.1-0.9,2-2,2
	s-2-0.9-2-2s0.9-2,2-2S11.5,3.9,11.5,5z M16.6,5c0,1.1-0.9,2-2,2s-2-0.9-2-2s0.9-2,2-2S16.6,3.9,16.6,5z"/>
</svg>