<svg xmlns="http://www.w3.org/2000/svg"
    width="24" height="24"
    viewBox="0 0 24 24">
    <path fill="none"
        stroke="#757575"
        stroke-width="1.5"
        stroke-linecap="round"
        stroke-linejoin="round"
        d="M3.5 7V4.969c0-.398.158-.78.439-1.061.282-.281.663-.439 1.061-.439h14c.398
0 .779.158 1.061.439.281.281.439.663.439 1.061v14c0 .398-.158.779-.439
1.06-.282.282-.663.44-1.061.44H5c-.828 0-1.5-.672-1.5-1.5V13.5c0-.398.158-.779.439-1.061C4.221
12.158 4.602 12 5 12h10.117l-3.946 3.946M15.117
 12L11.17 8.053"/>
</svg>