<svg xmlns="http://www.w3.org/2000/svg"
    width="24" height="24"
    viewBox="0 0 24 24">
    <path fill="none"
        stroke="#757575"
        stroke-width="1.5"
        stroke-linecap="round"
        stroke-linejoin="round"
        d="M19.25 9.947c0-.409-.192-.794-.519-1.039C17.071 7.66 12 3.848
 12 3.848S6.929 7.66 5.269 8.908c-.327.245-.519.63-.519 1.039v8.905c0
.345.137.676.381.919.244.244.574.381.919.381h11.9c.345 0
.675-.137.919-.381.244-.243.381-.574.381-.919V9.947z
M12.405 16.491c-.228.207-.579.207-.807-.003l-.033-.03c-1.574-1.424-2.603-2.357-2.564-3.521.018-.509.279-.998.702-1.286.792-.54
 1.769-.288 2.297.33.528-.618 1.506-.873 2.297-.33.423.288.684.777.702
 1.286.042 1.164-.989 2.097-2.564 3.527l-.03.027z"/>
</svg>