<svg xmlns="http://www.w3.org/2000/svg"
    width="24" height="24"
    viewBox="0 0 24 24">
    <path fill="none"
        stroke="#757575"
        stroke-width="1.5"
        stroke-linecap="round"
        stroke-linejoin="round"
        d="M21 5c0-.53-.211-1.039-.586-1.414S19.53 3 19 3H5c-.53
  0-1.039.211-1.414.586S3 4.47 3 5v14c0 .53.211 1.039.586
  1.414S4.47 21 5 21h14c.53 0 1.039-.211 1.414-.586S21 19.53
  21 19V5z M12.666 14.296V8.73c0-.403.327-.73.73-.73h1.346m-3.78
  4.593c.941 0 1.704.763 1.704 1.703 0 .941-.763 1.704-1.704
  1.704s-1.704-.763-1.704-1.704c0-.94.763-1.703
  1.704-1.703z"/>
</svg>