<svg xmlns="http://www.w3.org/2000/svg"
    width="24" height="24"
    viewBox="0 0 24 24">
    <path fill="none"
        stroke="#757575"
        stroke-width="0.6"
        stroke-miterlimit="10"
        d="M17.5,7.5h-3V13c0,1.4-1.1,2.5-2.5,2.5
           	S9.5,14.4,9.5,13s1.1-2.5,2.5-2.5c0.6,0,1.1,0.2,1.5,0.5V5.5h4V7.5z M17.5,21.5H4.2c-0.5,0-0.9-0.2-1.2-0.5h0
           	c-0.3-0.3-0.5-0.8-0.5-1.2V6.5 M21.5,4.5v12c0,1.1-0.9,2-2,2h-12c-1.1,0-2-0.9-2-2v-12c0-1.1,0.9-2,2-2h12
           	C20.6,2.5,21.5,3.4,21.5,4.5z"/>
</svg>