<svg xmlns="http://www.w3.org/2000/svg"
    width="24" height="24"
    viewBox="0 0 24 24">
    <path fill="none"
        stroke="#757575"
        stroke-width="1.5"
        stroke-linecap="round"
        stroke-linejoin="round"
        d="M13.9 8.1h3m-3 3.9h3m-6.2 3.4V8.6c0-.3-.2-.5-.5-.5H7.6c-.3
  0-.5.2-.5.5v6.9c0 .3.2.5.5.5h2.6c.3-.1.5-.3.5-.6zm3.2.5h3 M21
  5c0-.53-.211-1.039-.586-1.414S19.53 3 19 3H5c-.53 0-1.039.211-1.414.586S3
  4.47 3 5v14c0 .53.211 1.039.586 1.414S4.47 21 5 21h14c.53 0 1.039-.211
  1.414-.586S21 19.53 21 19V5z"/>
</svg>