<svg xmlns="http://www.w3.org/2000/svg"
    width="24" height="24"
    viewBox="0 0 24 24">
    <path fill="none"
        stroke="#757575"
		stroke-width="1.5"
		stroke-linecap="round"
        stroke-linejoin="round"
        d="M21.5 4.972c0-.125-.05-.245-.138-.334-.089-.088-.209-.138-.334-.138H4.025c-.404 
  0-.792.161-1.078.447-.286.286-.447.674-.447 1.078v11.991c0 .394.156.771.435 1.049.278.279.655.435 1.049.435h16.012c.83 0 
  1.504-.674 1.504-1.504V4.972zM6.757 4.5L8.243 8M11.757 4.5L13.243 
  8M16.757 4.5L18.243 8"/>
</svg>