<svg xmlns="http://www.w3.org/2000/svg"
    width="24" height="24"
    viewBox="0 0 24 24">
    <path
        fill="none"
        stroke="#757575"
        stroke-width="0.6"
        stroke-miterlimit="10"
        d="M20.9,13.9c0-1.6-0.4-3-1-4.3c-0.7-1.2-1.6-2.2-2.7-3l-1-0.6c-0.6-0.3-1.3-0.6-2-0.8S12.8,4.9,12,4.9
	S10.5,5,9.8,5.2C9.1,5.4,8.4,5.6,7.8,6l-1,0.6C5.7,7.4,4.7,8.4,4.1,9.7s-1,2.6-1,4.3l0,0l0,0 M15.8,8.6c0.7,0,1.3,0.6,1.3,1.3
	s-0.6,1.3-1.3,1.3s-1.3-0.6-1.3-1.3C14.5,9.2,15.1,8.6,15.8,8.6L15.8,8.6z M9.5,10c0,0.7-0.6,1.3-1.3,1.3S6.9,10.7,6.9,10
	s0.6-1.3,1.3-1.3C8.9,8.6,9.5,9.2,9.5,10L9.5,10z M3.1,19.6c0,0.7,0.6,1.4,1.3,1.4h15.4c0.7,0,1.1-0.7,1.1-1.4v-4.8l-17.8,0V19.6
	L3.1,19.6z M3.1,13.9v0.9 M20.9,13.9v0.9 M5.5,2.8l2,3.5 M18.5,2.8l-2,3.5"/>
</svg>