<svg xmlns="http://www.w3.org/2000/svg"
    width="24" height="24"
    viewBox="0 0 24 24">
    <path
        fill="none"
        stroke="#757575"
        stroke-width="0.6"
        stroke-miterlimit="10"
        d="M20,4H4C2.9,4,2,4.9,2,6l0,12c0,1.1,0.9,2,2,2h16c1.1,0,2-0.9,2-2V6C22,4.9,21.1,4,20,4L20,4z M16.5,16c0.8,0,1.5-0.7,1.5-1.5S17.3,13,16.5,13c-0.8,0-1.5,0.7-1.5,1.5S15.7,16,16.5,16z M12,16c0.8,0,1.5-0.7,1.5-1.5S12.8,13,12,13s-1.5,0.7-1.5,1.5S11.2,16,12,16z M7.5,16C8.3,16,9,15.3,9,14.5S8.3,13,7.5,13S6,13.7,6,14.5S6.7,16,7.5,16z"/>
</svg>