<svg xmlns="http://www.w3.org/2000/svg"
    width="24" height="24"
    viewBox="0 0 24 24">
    <path
        fill="none"
        stroke="#757575"
        stroke-width="0.8"
        stroke-miterlimit="10"
        d="M16.5,16.8c0.7,0,1.3-0.6,1.3-1.3c0-0.7-0.6-1.3-1.3-1.3c-0.7,0-1.3,0.6-1.3,1.3C15.3,16.2,15.8,16.8,16.5,16.8
	z M12,16.8c0.7,0,1.3-0.6,1.3-1.3c0-0.7-0.6-1.3-1.3-1.3s-1.3,0.6-1.3,1.3C10.8,16.2,11.3,16.8,12,16.8z M7.5,16.8
	c0.7,0,1.3-0.6,1.3-1.3c0-0.7-0.6-1.3-1.3-1.3s-1.3,0.6-1.3,1.3C6.3,16.2,6.8,16.8,7.5,16.8z M20,20H4c-1.1,0-2-0.9-2-2V6
	c0-1.1,0.9-2,2-2h16c1.1,0,2,0.9,2,2v12C22,19.1,21.1,20,20,20z"/>
</svg>